{"title":"Mr.Poppers.Penguins.BrRip.Xvid.Audio.Latino.Ac3.5.1","uid":6988411,"size":1513646295,"categoryP":"video","categoryS":"movies","magnet":"?xt=urn:btih:924640f370d161b3e5ef4784882654d566a17882&amp;dn=Mr.Poppers.Penguins.BrRip.Xvid.Audio.Latino.Ac3.5.1&amp;tr=udp%3A%2F%2Ftracker.openbittorrent.com%3A80&amp;tr=udp%3A%2F%2Fopen.demonii.com%3A1337&amp;tr=udp%3A%2F%2Ftracker.coppersurfer.tk%3A6969&amp;tr=udp%3A%2F%2Fexodus.desync.com%3A6969","seeders":0,"leechers":0,"uploader":"steban260384","files":2,"time":1327641698,"description":"DATOS DE LA PELICULA EXELENTE CALIDAD\n\n\n\nComplete name                    : \\Los Pinguinos de Papa\\Mr.Poppers.Penguins.BrRip.Xvid.Audio.Latino.Ac3.5.1-Maurixio.avi\nFormat                           : AVI\nFormat/Info                      : Audio Video Interleave\nFile size                        : 1.41 GiB\nDuration                         : 1h 34mn\nOverall bit rate                 : 2 139 Kbps\nDirector                         : Maurixio\nWriting application              : VirtualDubMod 1.5.10.2 (build 2542/release)\nWriting library                  : VirtualDubMod build 2542/release\n\nVideo\nID                               : 0\nFormat                           : MPEG-4 Visual\nFormat profile                   : Advanced Simple@L5\nFormat settings, BVOP            : Yes\nFormat settings, QPel            : No\nFormat settings, GMC             : No warppoints\nFormat settings, Matrix          : Default (H.263)\nCodec ID                         : XVID\nCodec ID/Hint                    : XviD\nDuration                         : 1h 34mn\nBit rate                         : 1 746 Kbps\nWidth                            : 720 pixels\nHeight                           : 384 pixels\nDisplay aspect ratio             : 1.875\nFrame rate                       : 23.976 fps\nColor space                      : YUV\nChroma subsampling               : 4:2:0\nBit depth                        : 8 bits\nScan type                        : Progressive\nCompression mode                 : Lossy\nBits/(Pixel*Frame)               : 0.263\nStream size                      : 1.15 GiB (82%)\nWriting library                  : XviD 1.2.1 (UTC 2008-12-04)\n\nAudio\nID                               : 1\nFormat                           : AC-3\nFormat/Info                      : Audio Coding 3\nMode extension                   : CM (complete main)\nCodec ID                         : 2000\nDuration                         : 1h 34mn\nBit rate mode                    : Constant\nBit rate                         : 384 Kbps\nChannel(s)                       : 6 channels\nChannel positions                : Front: L C R, Side: L R, LFE\nSampling rate                    : 48.0 KHz\nBit depth                        : 16 bits\nCompression mode                 : Lossy\nDelay relative to video          : 1s 0ms\nStream size                      : 259 MiB (18%)\nAlignment                        : Split accross interleaves\nInterleave, duration             : 42 ms (1.00 video frame)\nInterleave, preload duration     : 500 ms\n\n","torrent":{"xt":"urn:btih:924640f370d161b3e5ef4784882654d566a17882","amp;dn":"Mr.Poppers.Penguins.BrRip.Xvid.Audio.Latino.Ac3.5.1","amp;tr":["udp%3A%2F%2Ftracker.openbittorrent.com%3A80","udp%3A%2F%2Fopen.demonii.com%3A1337","udp%3A%2F%2Ftracker.coppersurfer.tk%3A6969","udp%3A%2F%2Fexodus.desync.com%3A6969"],"infoHash":"924640f370d161b3e5ef4784882654d566a17882","infoHashBuffer":{"type":"Buffer","data":[146,70,64,243,112,209,97,179,229,239,71,132,136,38,84,213,102,161,120,130]},"announce":[],"urlList":[]}}